<?xml version="1.0" encoding="utf-8"?>
<svg xmlns="http://www.w3.org/2000/svg" xmlns:xlink="http://www.w3.org/1999/xlink" style="margin: auto; background: rgb(0, 0, 0); display: block; shape-rendering: auto;" width="200px" height="200px" viewBox="0 0 100 100" preserveAspectRatio="xMidYMid">
<g transform="rotate(0 50 50)">
  <rect x="47" y="7.5" rx="3" ry="22.5" width="6" height="45" fill="#df1317">
    <animate attributeName="opacity" values="1;0" keyTimes="0;1" dur="0.684931506849315s" begin="-0.661313179026925s" repeatCount="indefinite"></animate>
  </rect>
</g><g transform="rotate(12.413793103448276 50 50)">
  <rect x="47" y="7.5" rx="3" ry="22.5" width="6" height="45" fill="#df1317">
    <animate attributeName="opacity" values="1;0" keyTimes="0;1" dur="0.684931506849315s" begin="-0.6376948512045347s" repeatCount="indefinite"></animate>
  </rect>
</g><g transform="rotate(24.82758620689655 50 50)">
  <rect x="47" y="7.5" rx="3" ry="22.5" width="6" height="45" fill="#df1317">
    <animate attributeName="opacity" values="1;0" keyTimes="0;1" dur="0.684931506849315s" begin="-0.6140765233821446s" repeatCount="indefinite"></animate>
  </rect>
</g><g transform="rotate(37.241379310344826 50 50)">
  <rect x="47" y="7.5" rx="3" ry="22.5" width="6" height="45" fill="#df1317">
    <animate attributeName="opacity" values="1;0" keyTimes="0;1" dur="0.684931506849315s" begin="-0.5904581955597544s" repeatCount="indefinite"></animate>
  </rect>
</g><g transform="rotate(49.6551724137931 50 50)">
  <rect x="47" y="7.5" rx="3" ry="22.5" width="6" height="45" fill="#df1317">
    <animate attributeName="opacity" values="1;0" keyTimes="0;1" dur="0.684931506849315s" begin="-0.5668398677373643s" repeatCount="indefinite"></animate>
  </rect>
</g><g transform="rotate(62.06896551724138 50 50)">
  <rect x="47" y="7.5" rx="3" ry="22.5" width="6" height="45" fill="#df1317">
    <animate attributeName="opacity" values="1;0" keyTimes="0;1" dur="0.684931506849315s" begin="-0.543221539914974s" repeatCount="indefinite"></animate>
  </rect>
</g><g transform="rotate(74.48275862068965 50 50)">
  <rect x="47" y="7.5" rx="3" ry="22.5" width="6" height="45" fill="#df1317">
    <animate attributeName="opacity" values="1;0" keyTimes="0;1" dur="0.684931506849315s" begin="-0.5196032120925839s" repeatCount="indefinite"></animate>
  </rect>
</g><g transform="rotate(86.89655172413794 50 50)">
  <rect x="47" y="7.5" rx="3" ry="22.5" width="6" height="45" fill="#df1317">
    <animate attributeName="opacity" values="1;0" keyTimes="0;1" dur="0.684931506849315s" begin="-0.4959848842701937s" repeatCount="indefinite"></animate>
  </rect>
</g><g transform="rotate(99.3103448275862 50 50)">
  <rect x="47" y="7.5" rx="3" ry="22.5" width="6" height="45" fill="#df1317">
    <animate attributeName="opacity" values="1;0" keyTimes="0;1" dur="0.684931506849315s" begin="-0.4723665564478035s" repeatCount="indefinite"></animate>
  </rect>
</g><g transform="rotate(111.72413793103448 50 50)">
  <rect x="47" y="7.5" rx="3" ry="22.5" width="6" height="45" fill="#df1317">
    <animate attributeName="opacity" values="1;0" keyTimes="0;1" dur="0.684931506849315s" begin="-0.44874822862541336s" repeatCount="indefinite"></animate>
  </rect>
</g><g transform="rotate(124.13793103448276 50 50)">
  <rect x="47" y="7.5" rx="3" ry="22.5" width="6" height="45" fill="#df1317">
    <animate attributeName="opacity" values="1;0" keyTimes="0;1" dur="0.684931506849315s" begin="-0.4251299008030232s" repeatCount="indefinite"></animate>
  </rect>
</g><g transform="rotate(136.55172413793105 50 50)">
  <rect x="47" y="7.5" rx="3" ry="22.5" width="6" height="45" fill="#df1317">
    <animate attributeName="opacity" values="1;0" keyTimes="0;1" dur="0.684931506849315s" begin="-0.401511572980633s" repeatCount="indefinite"></animate>
  </rect>
</g><g transform="rotate(148.9655172413793 50 50)">
  <rect x="47" y="7.5" rx="3" ry="22.5" width="6" height="45" fill="#df1317">
    <animate attributeName="opacity" values="1;0" keyTimes="0;1" dur="0.684931506849315s" begin="-0.37789324515824285s" repeatCount="indefinite"></animate>
  </rect>
</g><g transform="rotate(161.3793103448276 50 50)">
  <rect x="47" y="7.5" rx="3" ry="22.5" width="6" height="45" fill="#df1317">
    <animate attributeName="opacity" values="1;0" keyTimes="0;1" dur="0.684931506849315s" begin="-0.35427491733585265s" repeatCount="indefinite"></animate>
  </rect>
</g><g transform="rotate(173.79310344827587 50 50)">
  <rect x="47" y="7.5" rx="3" ry="22.5" width="6" height="45" fill="#df1317">
    <animate attributeName="opacity" values="1;0" keyTimes="0;1" dur="0.684931506849315s" begin="-0.3306565895134625s" repeatCount="indefinite"></animate>
  </rect>
</g><g transform="rotate(186.20689655172413 50 50)">
  <rect x="47" y="7.5" rx="3" ry="22.5" width="6" height="45" fill="#df1317">
    <animate attributeName="opacity" values="1;0" keyTimes="0;1" dur="0.684931506849315s" begin="-0.3070382616910723s" repeatCount="indefinite"></animate>
  </rect>
</g><g transform="rotate(198.6206896551724 50 50)">
  <rect x="47" y="7.5" rx="3" ry="22.5" width="6" height="45" fill="#df1317">
    <animate attributeName="opacity" values="1;0" keyTimes="0;1" dur="0.684931506849315s" begin="-0.28341993386868214s" repeatCount="indefinite"></animate>
  </rect>
</g><g transform="rotate(211.0344827586207 50 50)">
  <rect x="47" y="7.5" rx="3" ry="22.5" width="6" height="45" fill="#df1317">
    <animate attributeName="opacity" values="1;0" keyTimes="0;1" dur="0.684931506849315s" begin="-0.25980160604629193s" repeatCount="indefinite"></animate>
  </rect>
</g><g transform="rotate(223.44827586206895 50 50)">
  <rect x="47" y="7.5" rx="3" ry="22.5" width="6" height="45" fill="#df1317">
    <animate attributeName="opacity" values="1;0" keyTimes="0;1" dur="0.684931506849315s" begin="-0.23618327822390175s" repeatCount="indefinite"></animate>
  </rect>
</g><g transform="rotate(235.86206896551724 50 50)">
  <rect x="47" y="7.5" rx="3" ry="22.5" width="6" height="45" fill="#df1317">
    <animate attributeName="opacity" values="1;0" keyTimes="0;1" dur="0.684931506849315s" begin="-0.2125649504015116s" repeatCount="indefinite"></animate>
  </rect>
</g><g transform="rotate(248.27586206896552 50 50)">
  <rect x="47" y="7.5" rx="3" ry="22.5" width="6" height="45" fill="#df1317">
    <animate attributeName="opacity" values="1;0" keyTimes="0;1" dur="0.684931506849315s" begin="-0.18894662257912143s" repeatCount="indefinite"></animate>
  </rect>
</g><g transform="rotate(260.6896551724138 50 50)">
  <rect x="47" y="7.5" rx="3" ry="22.5" width="6" height="45" fill="#df1317">
    <animate attributeName="opacity" values="1;0" keyTimes="0;1" dur="0.684931506849315s" begin="-0.16532829475673125s" repeatCount="indefinite"></animate>
  </rect>
</g><g transform="rotate(273.1034482758621 50 50)">
  <rect x="47" y="7.5" rx="3" ry="22.5" width="6" height="45" fill="#df1317">
    <animate attributeName="opacity" values="1;0" keyTimes="0;1" dur="0.684931506849315s" begin="-0.14170996693434107s" repeatCount="indefinite"></animate>
  </rect>
</g><g transform="rotate(285.51724137931035 50 50)">
  <rect x="47" y="7.5" rx="3" ry="22.5" width="6" height="45" fill="#df1317">
    <animate attributeName="opacity" values="1;0" keyTimes="0;1" dur="0.684931506849315s" begin="-0.11809163911195088s" repeatCount="indefinite"></animate>
  </rect>
</g><g transform="rotate(297.9310344827586 50 50)">
  <rect x="47" y="7.5" rx="3" ry="22.5" width="6" height="45" fill="#df1317">
    <animate attributeName="opacity" values="1;0" keyTimes="0;1" dur="0.684931506849315s" begin="-0.09447331128956071s" repeatCount="indefinite"></animate>
  </rect>
</g><g transform="rotate(310.3448275862069 50 50)">
  <rect x="47" y="7.5" rx="3" ry="22.5" width="6" height="45" fill="#df1317">
    <animate attributeName="opacity" values="1;0" keyTimes="0;1" dur="0.684931506849315s" begin="-0.07085498346717053s" repeatCount="indefinite"></animate>
  </rect>
</g><g transform="rotate(322.7586206896552 50 50)">
  <rect x="47" y="7.5" rx="3" ry="22.5" width="6" height="45" fill="#df1317">
    <animate attributeName="opacity" values="1;0" keyTimes="0;1" dur="0.684931506849315s" begin="-0.047236655644780356s" repeatCount="indefinite"></animate>
  </rect>
</g><g transform="rotate(335.17241379310343 50 50)">
  <rect x="47" y="7.5" rx="3" ry="22.5" width="6" height="45" fill="#df1317">
    <animate attributeName="opacity" values="1;0" keyTimes="0;1" dur="0.684931506849315s" begin="-0.023618327822390178s" repeatCount="indefinite"></animate>
  </rect>
</g><g transform="rotate(347.58620689655174 50 50)">
  <rect x="47" y="7.5" rx="3" ry="22.5" width="6" height="45" fill="#df1317">
    <animate attributeName="opacity" values="1;0" keyTimes="0;1" dur="0.684931506849315s" begin="0s" repeatCount="indefinite"></animate>
  </rect>
</g>
<!-- [ldio] generated by https://loading.io/ --></svg>